# xmcd CD database file
#
# Track frame offsets:
#	150
#	11185
#	25125
#	39758
#	56475
#	96855
#	120000
#	136350
#	157425
#	170775
#
# Disc length: 2539 seconds
#
# Revision: 3
# Processed by: cddbd v1.5.2PL0 Copyright (c) Steve Scherf et al.
# Submitted via: CDex 1.82
#
DISCID=7e09e90a
DTITLE=Cheap Trick - Budokan I (Cheap Trick Live At Budokan)
DYEAR=1977
DGENRE=Rock
TTITLE0=Hello There
TTITLE1=Come On, Come On
TTITLE2=Lookout
TTITLE3=Big Eyes
TTITLE4=Need Your love
TTITLE5=Ain't That A Shame
TTITLE6=I Want You To Want Me
TTITLE7=Surrender
TTITLE8=Goodnight Now
TTITLE9=Clock Strikes Ten
EXTD=0\n\n\n YEAR: 1977
EXTT0=
EXTT1=
EXTT2=
EXTT3=
EXTT4=
EXTT5=
EXTT6=
EXTT7=
EXTT8=
EXTT9=
PLAYORDER=
